HIERARCHY
ROOT Hips
{
  OFFSET 0.0 0.0 0.0
  CHANNELS 6 Xposition Yposition Zposition Zrotation Xrotation Yrotation
  JOINT Spine
  {
    OFFSET 0.0 10.0 0.0
    CHANNELS 3 Zrotation Xrotation Yrotation
    JOINT Chest
    {
      OFFSET 0.0 10.0 0.0
      CHANNELS 3 Zrotation Xrotation Yrotation
      JOINT Neck
      {
        OFFSET 0.0 5.0 0.0
        CHANNELS 3 Zrotation Xrotation Yrotation
        JOINT Head
        {
          OFFSET 0.0 5.0 0.0
          CHANNELS 3 Zrotation Xrotation Yrotation
          End Site
          {
            OFFSET 0.0 3.0 0.0
          }
        }
      }
      JOINT LeftShoulder
      {
        OFFSET 5.0 3.0 0.0
        CHANNELS 3 Zrotation Xrotation Yrotation
        JOINT LeftArm
        {
          OFFSET 10.0 0.0 0.0
          CHANNELS 3 Zrotation Xrotation Yrotation
          JOINT LeftForeArm
          {
            OFFSET 10.0 0.0 0.0
            CHANNELS 3 Zrotation Xrotation Yrotation
            JOINT LeftHand
            {
              OFFSET 8.0 0.0 0.0
              CHANNELS 3 Zrotation Xrotation Yrotation
              End Site
              {
                OFFSET 3.0 0.0 0.0
              }
            }
          }
        }
      }
      JOINT RightShoulder
      {
        OFFSET -5.0 3.0 0.0
        CHANNELS 3 Zrotation Xrotation Yrotation
        JOINT RightArm
        {
          OFFSET -10.0 0.0 0.0
          CHANNELS 3 Zrotation Xrotation Yrotation
          JOINT RightForeArm
          {
            OFFSET -10.0 0.0 0.0
            CHANNELS 3 Zrotation Xrotation Yrotation
            JOINT RightHand
            {
              OFFSET -8.0 0.0 0.0
              CHANNELS 3 Zrotation Xrotation Yrotation
              End Site
              {
                OFFSET -3.0 0.0 0.0
              }
            }
          }
        }
      }
    }
  }
  JOINT LeftHip
  {
    OFFSET 5.0 -2.0 0.0
    CHANNELS 3 Zrotation Xrotation Yrotation
    JOINT LeftThigh
    {
      OFFSET 0.0 -20.0 0.0
      CHANNELS 3 Zrotation Xrotation Yrotation
      JOINT LeftShin
      {
        OFFSET 0.0 -20.0 0.0
        CHANNELS 3 Zrotation Xrotation Yrotation
        JOINT LeftFoot
        {
          OFFSET 0.0 -5.0 0.0
          CHANNELS 3 Zrotation Xrotation Yrotation
          End Site
          {
            OFFSET 0.0 -2.0 5.0
          }
        }
      }
    }
  }
  JOINT RightHip
  {
    OFFSET -5.0 -2.0 0.0
    CHANNELS 3 Zrotation Xrotation Yrotation
    JOINT RightThigh
    {
      OFFSET 0.0 -20.0 0.0
      CHANNELS 3 Zrotation Xrotation Yrotation
      JOINT RightShin
      {
        OFFSET 0.0 -20.0 0.0
        CHANNELS 3 Zrotation Xrotation Yrotation
        JOINT RightFoot
        {
          OFFSET 0.0 -5.0 0.0
          CHANNELS 3 Zrotation Xrotation Yrotation
          End Site
          {
            OFFSET 0.0 -2.0 5.0
          }
        }
      }
    }
  }
}
MOTION
Frames: 16
Frame Time: 0.033333
0.000000 40.000000 0.000000 0.000000 0.000000 0.000000 0.000000 0.000000 0.000000 0.000000 0.000000 0.000000 0.000000 0.000000 0.000000 0.000000 0.000000 0.000000 0.000000 0.000000 -10.000000 0.000000 0.000000 -0.000000 0.000000 0.000000 -0.000000 0.000000 0.000000 0.000000 0.000000 0.000000 10.000000 0.000000 0.000000 0.000000 0.000000 0.000000 0.000000 0.000000 0.000000 0.000000 0.000000 0.000000 0.000000 0.000000 0.000000 0.000000 0.000000 0.000000 -0.000000 0.000000 0.000000 0.000000 0.000000 0.000000 0.000000 0.000000 0.000000 -0.000000 0.000000 0.000000 0.000000 0.000000 0.000000 0.000000
0.527999 41.557633 1.184097 0.527018 0.000000 0.000000 0.000000 0.000000 0.000000 0.000000 0.263509 0.000000 0.000000 0.000000 0.000000 0.000000 0.158105 0.000000 0.000000 0.000000 -10.000000 0.000000 0.000000 -4.672900 0.000000 0.000000 -4.672900 0.000000 0.000000 0.000000 0.000000 0.000000 10.000000 0.000000 0.000000 4.672900 0.000000 0.000000 0.000000 0.000000 0.000000 0.000000 0.000000 0.000000 0.000000 0.000000 0.000000 15.576335 0.000000 0.000000 0.000000 0.000000 0.000000 0.000000 0.000000 0.000000 0.000000 0.000000 0.000000 -15.576335 0.000000 0.000000 15.576335 0.000000 0.000000 0.000000
1.055998 42.960243 1.908533 1.048165 0.000000 0.000000 0.000000 0.000000 0.000000 0.000000 0.524082 0.000000 0.000000 0.000000 0.000000 0.000000 0.314449 0.000000 0.000000 0.000000 -10.000000 0.000000 0.000000 -8.880730 0.000000 0.000000 -8.880730 0.000000 0.000000 0.000000 0.000000 0.000000 10.000000 0.000000 0.000000 8.880730 0.000000 0.000000 0.000000 0.000000 0.000000 0.000000 0.000000 0.000000 0.000000 0.000000 0.000000 29.602432 0.000000 0.000000 0.000000 0.000000 0.000000 0.000000 0.000000 0.000000 0.000000 0.000000 0.000000 -29.602432 0.000000 0.000000 29.602432 0.000000 0.000000 0.000000
1.583996 44.068234 1.892085 1.557633 0.000000 0.000000 0.000000 0.000000 0.000000 0.000000 0.778817 0.000000 0.000000 0.000000 0.000000 0.000000 0.467290 0.000000 0.000000 0.000000 -10.000000 0.000000 0.000000 -12.204702 0.000000 0.000000 -12.204702 0.000000 0.000000 0.000000 0.000000 0.000000 10.000000 0.000000 0.000000 12.204702 0.000000 0.000000 0.000000 0.000000 0.000000 0.000000 0.000000 0.000000 0.000000 0.000000 0.000000 40.682341 0.000000 0.000000 0.000000 0.000000 0.000000 0.000000 0.000000 0.000000 0.000000 0.000000 0.000000 -40.682341 0.000000 0.000000 40.682341 0.000000 0.000000 0.000000
2.111995 44.771333 1.141138 2.049749 0.000000 0.000000 0.000000 0.000000 0.000000 0.000000 1.024874 0.000000 0.000000 0.000000 0.000000 0.000000 0.614925 0.000000 0.000000 0.000000 -10.000000 0.000000 0.000000 -14.314000 0.000000 0.000000 -14.314000 0.000000 0.000000 0.000000 0.000000 0.000000 10.000000 0.000000 0.000000 14.314000 0.000000 0.000000 0.000000 0.000000 0.000000 0.000000 0.000000 0.000000 0.000000 0.000000 0.000000 47.713332 0.000000 0.000000 0.000000 0.000000 0.000000 0.000000 0.000000 0.000000 0.000000 0.000000 0.000000 -47.713332 0.000000 0.000000 47.713332 0.000000 0.000000 0.000000
2.639994 44.999564 -0.052794 2.519028 0.000000 0.000000 0.000000 0.000000 0.000000 0.000000 1.259514 0.000000 0.000000 0.000000 0.000000 0.000000 0.755708 0.000000 0.000000 0.000000 -10.000000 0.000000 0.000000 -14.998693 0.000000 0.000000 -14.998693 0.000000 0.000000 0.000000 0.000000 0.000000 10.000000 0.000000 0.000000 14.998693 0.000000 0.000000 0.000000 0.000000 0.000000 0.000000 0.000000 0.000000 0.000000 0.000000 0.000000 49.995644 0.000000 0.000000 0.000000 0.000000 0.000000 0.000000 0.000000 0.000000 0.000000 0.000000 0.000000 -49.995644 0.000000 0.000000 49.995644 0.000000 0.000000 0.000000
3.167993 44.730213 -1.226231 2.960243 0.000000 0.000000 0.000000 0.000000 0.000000 0.000000 1.480122 0.000000 0.000000 0.000000 0.000000 0.000000 0.888073 0.000000 0.000000 0.000000 -10.000000 0.000000 0.000000 -14.190639 0.000000 0.000000 -14.190639 0.000000 0.000000 0.000000 0.000000 0.000000 10.000000 0.000000 0.000000 14.190639 0.000000 0.000000 0.000000 0.000000 0.000000 0.000000 0.000000 0.000000 0.000000 0.000000 0.000000 47.302130 0.000000 0.000000 0.000000 0.000000 0.000000 0.000000 0.000000 0.000000 0.000000 0.000000 0.000000 -47.302130 0.000000 0.000000 47.302130 0.000000 0.000000 0.000000
3.695991 43.990086 -1.923651 3.368478 0.000000 0.000000 0.000000 0.000000 0.000000 0.000000 1.684239 0.000000 0.000000 0.000000 0.000000 0.000000 1.010543 0.000000 0.000000 0.000000 -10.000000 0.000000 0.000000 -11.970258 0.000000 0.000000 -11.970258 0.000000 0.000000 0.000000 0.000000 0.000000 10.000000 0.000000 0.000000 11.970258 0.000000 0.000000 0.000000 0.000000 0.000000 0.000000 0.000000 0.000000 0.000000 0.000000 0.000000 39.900861 0.000000 0.000000 0.000000 0.000000 0.000000 0.000000 0.000000 0.000000 0.000000 0.000000 0.000000 -39.900861 0.000000 0.000000 39.900861 0.000000 0.000000 0.000000
4.223990 42.852845 -1.874318 3.739185 0.000000 0.000000 0.000000 0.000000 0.000000 0.000000 1.869593 0.000000 0.000000 0.000000 0.000000 0.000000 1.121756 0.000000 0.000000 0.000000 -10.000000 0.000000 0.000000 -8.558536 0.000000 0.000000 -8.558536 0.000000 0.000000 0.000000 0.000000 0.000000 10.000000 0.000000 0.000000 8.558536 0.000000 0.000000 0.000000 0.000000 0.000000 0.000000 0.000000 0.000000 0.000000 0.000000 0.000000 28.528452 0.000000 0.000000 0.000000 0.000000 0.000000 0.000000 0.000000 0.000000 0.000000 0.000000 0.000000 -28.528452 0.000000 0.000000 28.528452 0.000000 0.000000 0.000000
4.751989 41.431674 -1.097384 4.068234 0.000000 0.000000 0.000000 0.000000 0.000000 0.000000 2.034117 0.000000 0.000000 0.000000 0.000000 0.000000 1.220470 0.000000 0.000000 0.000000 -10.000000 0.000000 0.000000 -4.295023 0.000000 0.000000 -4.295023 0.000000 0.000000 0.000000 0.000000 0.000000 10.000000 0.000000 0.000000 4.295023 0.000000 0.000000 0.000000 0.000000 0.000000 0.000000 0.000000 0.000000 0.000000 0.000000 0.000000 14.316742 0.000000 0.000000 0.000000 0.000000 0.000000 0.000000 0.000000 0.000000 0.000000 0.000000 0.000000 -14.316742 0.000000 0.000000 14.316742 0.000000 0.000000 0.000000
5.279988 40.131984 0.105551 4.351959 0.000000 0.000000 0.000000 0.000000 0.000000 0.000000 2.175980 0.000000 0.000000 0.000000 0.000000 0.000000 1.305588 0.000000 0.000000 0.000000 -10.000000 0.000000 0.000000 0.395953 0.000000 0.000000 0.000000 0.000000 0.000000 0.000000 0.000000 0.000000 10.000000 0.000000 0.000000 -0.395953 0.000000 0.000000 -0.395953 0.000000 0.000000 0.000000 0.000000 0.000000 0.000000 0.000000 0.000000 -1.319844 0.000000 0.000000 1.319844 0.000000 0.000000 0.000000 0.000000 0.000000 0.000000 0.000000 0.000000 1.319844 0.000000 0.000000 0.000000 0.000000 0.000000 0.000000
5.807986 41.682507 1.267511 4.587199 0.000000 0.000000 0.000000 0.000000 0.000000 0.000000 2.293599 0.000000 0.000000 0.000000 0.000000 0.000000 1.376160 0.000000 0.000000 0.000000 -10.000000 0.000000 0.000000 5.047522 0.000000 0.000000 0.000000 0.000000 0.000000 0.000000 0.000000 0.000000 10.000000 0.000000 0.000000 -5.047522 0.000000 0.000000 -5.047522 0.000000 0.000000 0.000000 0.000000 0.000000 0.000000 0.000000 0.000000 -16.825072 0.000000 0.000000 16.825072 0.000000 0.000000 0.000000 0.000000 0.000000 0.000000 0.000000 0.000000 16.825072 0.000000 0.000000 0.000000 0.000000 0.000000 0.000000
6.335985 43.065578 1.937429 4.771333 0.000000 0.000000 0.000000 0.000000 0.000000 0.000000 2.385667 0.000000 0.000000 0.000000 0.000000 0.000000 1.431400 0.000000 0.000000 0.000000 -10.000000 0.000000 0.000000 9.196734 0.000000 0.000000 0.000000 0.000000 0.000000 0.000000 0.000000 0.000000 10.000000 0.000000 0.000000 -9.196734 0.000000 0.000000 -9.196734 0.000000 0.000000 0.000000 0.000000 0.000000 0.000000 0.000000 0.000000 -30.655782 0.000000 0.000000 30.655782 0.000000 0.000000 0.000000 0.000000 0.000000 0.000000 0.000000 0.000000 30.655782 0.000000 0.000000 0.000000 0.000000 0.000000 0.000000
6.863984 44.143547 1.855246 4.902310 0.000000 0.000000 0.000000 0.000000 0.000000 0.000000 2.451155 0.000000 0.000000 0.000000 0.000000 0.000000 1.470693 0.000000 0.000000 0.000000 -10.000000 0.000000 0.000000 12.430641 0.000000 0.000000 0.000000 0.000000 0.000000 0.000000 0.000000 0.000000 10.000000 0.000000 0.000000 -12.430641 0.000000 0.000000 -12.430641 0.000000 0.000000 0.000000 0.000000 0.000000 0.000000 0.000000 0.000000 -41.435469 0.000000 0.000000 41.435469 0.000000 0.000000 0.000000 0.000000 0.000000 0.000000 0.000000 0.000000 41.435469 0.000000 0.000000 0.000000 0.000000 0.000000 0.000000
7.391983 44.809128 1.052864 4.978671 0.000000 0.000000 0.000000 0.000000 0.000000 0.000000 2.489335 0.000000 0.000000 0.000000 0.000000 0.000000 1.493601 0.000000 0.000000 0.000000 -10.000000 0.000000 0.000000 14.427385 0.000000 0.000000 0.000000 0.000000 0.000000 0.000000 0.000000 0.000000 10.000000 0.000000 0.000000 -14.427385 0.000000 0.000000 -14.427385 0.000000 0.000000 0.000000 0.000000 0.000000 0.000000 0.000000 0.000000 -48.091282 0.000000 0.000000 48.091282 0.000000 0.000000 0.000000 0.000000 0.000000 0.000000 0.000000 0.000000 48.091282 0.000000 0.000000 0.000000 0.000000 0.000000 0.000000
7.919981 44.996080 -0.158234 4.999564 0.000000 0.000000 0.000000 0.000000 0.000000 0.000000 2.499782 0.000000 0.000000 0.000000 0.000000 0.000000 1.499869 0.000000 0.000000 0.000000 -10.000000 0.000000 0.000000 14.988240 0.000000 0.000000 0.000000 0.000000 0.000000 0.000000 0.000000 0.000000 10.000000 0.000000 0.000000 -14.988240 0.000000 0.000000 -14.988240 0.000000 0.000000 0.000000 0.000000 0.000000 0.000000 0.000000 0.000000 -49.960801 0.000000 0.000000 49.960801 0.000000 0.000000 0.000000 0.000000 0.000000 0.000000 0.000000 0.000000 49.960801 0.000000 0.000000 0.000000 0.000000 0.000000 0.000000
